<?xml version="1.0" ?>
<!-- Uploaded to: SVG Repo, www.svgrepo.com, Generator: SVG Repo Mixer Tools -->
<svg width="800px" height="800px" viewBox="0 0 64 64" xmlns="http://www.w3.org/2000/svg">
<g id="a"/>
<g id="b"/>
<g id="c"/>
<g id="d"/>
<g id="e"/>
<g id="f"/>
<g id="g"/>
<g id="h"/>
<g id="i"/>
<g id="j"/>
<g id="k"/>
<g id="l">
<path d="M45.4,42.84c.49-1.38,1.28-2.58,2.02-3.48,.88-1.09,.71-2.31-.67-2.54-1.36-.23-3.1-.24-4.72,.54l-1.81,.8,.81,5.42,4.37-.74Z" fill="#6df4c0" fill-rule="evenodd"/>
<path d="M36.81,34.96c1.43-1.18,2.67-1.82,3.63-2.16,1.13-.4,1.99,.58,1.85,1.78-.19,1.6-.39,3.87-.39,5.99l-1.94,2.04s-7.12-2.88-3.15-7.65Z" fill="#9af6d3" fill-rule="evenodd"/>
<path d="M47.46,22.23c.17-.08,.33-.18,.46-.32l1.02-.99c.38-.37,.99-.36,1.37,.02l.99,1.02c.31,.32,.72,.5,1.16,.52l.94,.04c.38,.02,.69-.28,.65-.65-.22-1.96-1.53-3.7-3.47-4.86-1.51-.9-3.4-1.45-5.46-1.48-2.49-.04-4.76,.69-6.42,1.9l-1.03-.72c.25-2.01-.19-4.31-1.38-6.45-1-1.8-2.38-3.21-3.89-4.11-1.94-1.16-4.09-1.49-5.92-.76-.35,.14-.46,.55-.27,.88l.48,.81c.22,.38,.58,.65,1,.77l1.37,.39c.51,.15,.81,.68,.67,1.19l-.39,1.37c-.05,.18-.07,.37-.06,.56,0,0,2.03,5.12,2.49,5.3,.46,.17,8.97,5.66,8.97,5.66l6.72-.09Z" fill="#6df4c0" fill-rule="evenodd"/>
<path d="M36.6,23.36l.24,.14c.38,.22,.83,.28,1.25,.17l1.38-.35c.52-.13,1.04,.18,1.17,.7l.35,1.38c.11,.42,.38,.79,.75,1.01l1.63,.97c.37,.22,.82,.29,1.24,.18l1.38-.35c.52-.13,1.04,.18,1.17,.7l.35,1.38c.11,.42,.37,.79,.74,1.03l.8,.51c.32,.2,.74,.1,.89-.24,1.4-3.22-.53-7.54-4.57-9.96-2.46-1.47-5.17-1.91-7.4-1.42l-1.85-1.79c-.78-1.89-2.32-3.7-4.45-4.97-4.04-2.42-8.76-2.07-10.93,.69-.23,.3-.12,.71,.21,.89l.82,.46c.38,.22,.83,.28,1.26,.17l1.38-.35c.52-.13,1.04,.18,1.17,.7l.35,1.38c.11,.42,.38,.79,.75,1.01l1.63,.97c.37,.22,.82,.29,1.25,.18l1.38-.35c.52-.13,1.04,.18,1.17,.7l.32,1.29,4.18,3.15Z" fill="#9af6d3" fill-rule="evenodd"/>
<path d="M38.27,39.33c-.82-2.11-1.57-4.32-1.99-6.83-.46-2.71-.43-5.22,0-7.67,.42-2.4,1.18-4.4,1.77-5.81,.18-.43,.33-.79,.45-1.11,.33-.82-.15-1.48-.97-1.16-.35,.14-.77,.32-1.27,.58-1.48,.78-3.59,2.27-5.56,4.77-2.01,2.55-3.67,5.92-4.38,10.03-.11,.66-.2,1.32-.26,1.98l-.11,3.08,3.87,3.32h5.77l2.67-1.19Z" fill="#e9a696"/>
<path d="M58.82,49.93v-4.43c0-1.72-1.93-2.73-3.65-1.54-1.72,1.19-4.39,1.19-6.41-.21-2.02-1.4-4.68-1.4-6.71,0-2.02,1.4-4.68,1.4-6.71,0-1.01-.7-2.18-1.05-3.35-1.05s-2.34,.35-3.35,1.05c-2.02,1.4-4.68,1.4-6.71,0-1.01-.7-2.18-1.05-3.35-1.05s-2.34,.35-3.35,1.05c-2.02,1.4-4.69,1.4-6.41,.21-1.72-1.19-3.65-.18-3.65,1.54v4.43H58.82Z" fill="#62d9fa" fill-rule="evenodd"/>
<path d="M21.98,37.36c-1.62-.79-3.36-.77-4.72-.54-1.38,.23-1.56,1.45-.67,2.54,.73,.9,1.52,2.1,2.01,3.48l3.51,.95s4.28-4.35-.13-6.42Z" fill="#6df4c0" fill-rule="evenodd"/>
<path d="M30.69,38.67c-2.89-3.75-5.44-5.26-7.13-5.86-1.13-.4-1.99,.58-1.85,1.78,.19,1.6,.4,3.87,.39,5.99l4.33,2.1,4.25-4.01Z" fill="#9af6d3" fill-rule="evenodd"/>
<path d="M48.92,48.29s-1.98-9.64-16.92-9.64-16.92,9.64-16.92,9.64l5.49,2.58,23.39-.05,4.95-2.53Z" fill="#feccba" fill-rule="evenodd"/>
<path d="M48.91,48.29s-1.97-9.64-16.91-9.64c-.71,0-1.38,.03-2.03,.07,13.09,.83,14.89,9.57,14.89,9.57l-4.95,2.53-19.36,.04h.02l23.39-.04,4.95-2.53Z" fill="#fcbfad" fill-rule="evenodd"/>
<path d="M32,47.13c-1.17,0-2.34,.35-3.35,1.05-2.02,1.4-4.68,1.4-6.71,0-1.01-.7-2.18-1.05-3.35-1.05s-2.34,.35-3.35,1.05c-2.02,1.4-4.69,1.4-6.41,.21-1.72-1.19-3.65-.18-3.65,1.54v4.43l27.92,1.42,25.73-1.42v-4.43c0-1.72-1.93-2.73-3.65-1.54-1.72,1.19-4.39,1.19-6.41-.21-2.02-1.4-4.68-1.4-6.71,0-2.02,1.4-4.68,1.4-6.71,0-1.01-.7-2.18-1.05-3.35-1.05Z" fill="#0acffb" fill-rule="evenodd"/>
<path d="M32,51.56c-1.17,0-2.34,.35-3.35,1.05-2.02,1.4-4.68,1.4-6.71,0-1.01-.7-2.18-1.05-3.35-1.05s-2.34,.35-3.35,1.05c-2.02,1.4-4.69,1.4-6.41,.21-1.72-1.19-3.65-.18-3.65,1.54v1.47c0,1.75,1.42,3.18,3.18,3.18H55.65c1.75,0,3.18-1.42,3.18-3.18v-1.47c0-1.72-1.93-2.73-3.65-1.54-1.72,1.19-4.39,1.19-6.41-.21-2.02-1.4-4.68-1.4-6.71,0-2.02,1.4-4.68,1.4-6.71,0-1.01-.7-2.18-1.05-3.35-1.05Z" fill="#62d9fa" fill-rule="evenodd"/>
</g>
<g id="m"/>
<g id="n"/>
<g id="o"/>
<g id="p"/>
<g id="q"/>
<g id="r"/>
<g id="s"/>
<g id="t"/>
<g id="u"/>
<g id="v"/>
<g id="w"/>
<g id="x"/>
<g id="y"/>
<g id="a`"/>
<g id="aa"/>
<g id="ab"/>
<g id="ac"/>
<g id="ad"/>
<g id="ae"/>
<g id="af"/>
<g id="ag"/>
<g id="ah"/>
<g id="ai"/>
<g id="aj"/>
<g id="ak"/>
<g id="al"/>
<g id="am"/>
<g id="an"/>
<g id="ao"/>
<g id="ap"/>
<g id="aq"/>
<g id="ar"/>
<g id="as"/>
<g id="at"/>
<g id="au"/>
<g id="av"/>
<g id="aw"/>
<g id="ax"/>
</svg>